<svg id="icons" xmlns="http://www.w3.org/2000/svg" viewBox="0 0 128 128"><defs><style>.cls-1{fill:#ffe300;}.cls-2{fill:#303442;opacity:0.08;}.cls-3{fill:#fff;}.cls-4{fill:#f54b55;}.cls-5{fill:none;stroke:#303442;stroke-linecap:round;stroke-linejoin:round;stroke-width:4px;}</style></defs><title>pencil-and-paper</title><path class="cls-1" d="M92.7,45.21V102a3.9989,3.9989,0,0,1-4,4H26a3.9989,3.9989,0,0,1-4-4V39.3a3.9989,3.9989,0,0,1,4-4H82.79L50.74,67.27a3.72573,3.72573,0,0,0-.58.73,3.60906,3.60906,0,0,0-.45,1L46,82l13-3.71a3.60906,3.60906,0,0,0,1-.45,3.72573,3.72573,0,0,0,.73-.58Z"/><path class="cls-2" d="M89,96H26a3.99891,3.99891,0,0,1-4-4v10a3.99891,3.99891,0,0,0,4,4H89a3.99891,3.99891,0,0,0,4-4V92A3.99891,3.99891,0,0,1,89,96Z"/><path class="cls-3" d="M103.17,29.05a4.00761,4.00761,0,0,1,0,5.66l-3.73,3.73-9.88-9.88,3.73-3.73a4.00761,4.00761,0,0,1,5.66,0Z"/><path class="cls-4" d="M82.79,35.3l6.77-6.74,9.88,9.88L92.7,45.21,60.73,77.26a3.72573,3.72573,0,0,1-.73.58V68H50.16a3.72573,3.72573,0,0,1,.58-.73Z"/><path class="cls-3" d="M60,68v9.84a3.60906,3.60906,0,0,1-1,.45L46,82l3.71-13a3.60906,3.60906,0,0,1,.45-1Z"/><path class="cls-5" d="M92.7,45.18V102a3.9989,3.9989,0,0,1-4,4H26a3.9989,3.9989,0,0,1-4-4V39.3a3.9989,3.9989,0,0,1,4-4H82.82"/><path class="cls-5" d="M89.56,28.56l3.73-3.73a4.00761,4.00761,0,0,1,5.66,0l4.22,4.22a4.00761,4.00761,0,0,1,0,5.66l-3.73,3.73L92.7,45.21,60.73,77.26a3.72573,3.72573,0,0,1-.73.58,3.60906,3.60906,0,0,1-1,.45L46,82l3.71-13a3.60906,3.60906,0,0,1,.45-1,3.72573,3.72573,0,0,1,.58-.73L82.79,35.3Z"/><line class="cls-5" x1="99.44" y1="38.44" x2="89.56" y2="28.56"/><polyline class="cls-5" points="50.16 68 60 68 60 77.84"/></svg>